<svg width="1110.938" height="287.893" viewBox="0 0 1110.938 287.893" xmlns="http://www.w3.org/2000/svg"><g id="svgGroup" stroke-linecap="round" fill-rule="evenodd" font-size="9pt" stroke="#000" stroke-width="0.25mm" fill="none" style="stroke:#000;stroke-width:0.25mm;fill:none"><path d="M 175.15 304.82 l 31.3425 14.1775 c 29.85 13.4325 63.4275 13.4325 93.2775 0 l 31.3425 -14.1775 c 29.85 -13.4325 67.16 2.985 72.3825 35.0725 c 0.7475 2.2375 0.7475 5.2225 0.7475 8.2075 c 0 2.24 0 5.2225 -0.7475 8.2075 c -5.2225 32.0875 -42.535 48.505 -72.3825 35.0725 l -31.3425 -14.1775 c -29.85 -13.4325 -63.4275 -13.4325 -93.2775 0 l -31.3425 14.1775 c -29.85 13.4325 -67.16 -2.985 -72.3825 -35.0725 c -0.745 -2.24 -0.745 -5.2225 -0.745 -8.2075 c 0 -2.2375 0 -5.2225 0.745 -8.2075 c 5.2225 -32.09 42.535 -48.505 72.3825 -35.0725 z M 6.505 202.5875 c 5.2225 -32.0875 42.535 -48.505 72.3825 -35.0725 l 31.3425 14.1775 c 29.85 13.4325 63.4275 13.4325 93.2775 0 L 234.85 167.515 C 264.7 154.0825 302.01 170.5 307.2325 202.5875 c 0.7475 2.2375 0.7475 5.2225 0.7475 8.2075 c 0 2.2375 0 5.2225 -0.7475 8.2075 c -5.2225 32.0875 -42.535 48.505 -72.3825 35.0725 l -31.3425 -14.1775 c -29.85 -13.4325 -63.4275 -13.4325 -93.2775 0 l -31.3425 14.1775 c -29.85 13.4325 -67.16 -2.985 -72.3825 -35.0725 c -0.745 -2.2375 -0.745 -5.2225 -0.745 -8.2075 c 0 -2.2375 0 -5.2225 0.745 -8.2075 z M 331.11 115.28 l -31.3425 -14.1775 c -29.85 -13.4325 -63.4275 -13.4325 -93.2775 0 l -31.3425 14.1775 c -29.85 13.4325 -67.16 -2.985 -72.3825 -35.0725 c -0.745 -2.2375 -0.745 -5.2225 -0.745 -8.2075 c 0 -2.2375 0 -5.2225 0.745 -8.2075 c 5.2225 -32.0875 42.535 -48.505 72.3825 -35.0725 l 31.3425 14.1775 c 29.85 13.4325 63.4275 13.4325 93.2775 0 l 31.3425 -14.1775 c 29.85 -13.4325 67.16 2.2375 72.3825 35.0725 c 0.7475 2.2375 0.7475 5.2225 0.7475 8.2075 c 0 2.24 0 5.2225 -0.7475 8.2075 c -5.2225 32.0875 -42.5325 48.505 -72.3825 35.0725 z" vector-effect="non-scaling-stroke"/></g></svg>