<svg width="1110.938" height="287.893" viewBox="0 0 1110.938 287.893" xmlns="http://www.w3.org/2000/svg"><g id="svgGroup" stroke-linecap="round" fill-rule="evenodd" font-size="9pt" stroke="#000" stroke-width="0.25mm" fill="none" style="stroke:#000;stroke-width:0.25mm;fill:none"><path d="M 893.164 136.72 L 893.164 283.986 L 885.156 283.986 L 870.508 261.525 A 69.264 69.264 0 0 1 848.242 280.763 A 59.086 59.086 0 0 1 822.118 287.83 A 70.179 70.179 0 0 1 819.141 287.892 L 804.492 287.892 A 67.753 67.753 0 0 1 777.637 282.521 A 69.013 69.013 0 0 1 755.664 267.775 A 69.309 69.309 0 0 1 740.918 245.9 Q 735.547 233.4 735.547 219.142 L 735.547 68.752 Q 735.547 54.494 740.918 41.994 Q 746.289 29.494 755.664 20.119 A 69.013 69.013 0 0 1 777.637 5.373 Q 790.234 0.002 804.492 0.002 L 824.414 0.002 Q 838.672 0.002 851.172 5.373 Q 863.672 10.744 873.047 20.119 A 69.309 69.309 0 0 1 887.793 41.994 Q 893.164 54.494 893.164 68.752 L 893.164 80.08 L 867.969 83.986 L 867.969 68.752 A 44.01 44.01 0 0 0 865.466 53.835 A 41.669 41.669 0 0 0 864.453 51.271 Q 860.938 43.166 854.883 37.111 A 45.314 45.314 0 0 0 840.723 27.541 A 43.231 43.231 0 0 0 824.118 24.033 A 49.532 49.532 0 0 0 823.242 24.025 L 805.664 24.025 A 44.01 44.01 0 0 0 790.748 26.528 A 41.669 41.669 0 0 0 788.184 27.541 A 46.52 46.52 0 0 0 773.926 37.111 A 44.504 44.504 0 0 0 764.258 51.271 A 43.231 43.231 0 0 0 760.75 67.875 A 49.532 49.532 0 0 0 760.742 68.752 L 760.742 219.142 A 44.01 44.01 0 0 0 763.245 234.059 A 41.669 41.669 0 0 0 764.258 236.623 A 45.667 45.667 0 0 0 773.926 250.88 A 45.667 45.667 0 0 0 788.184 260.548 A 43.231 43.231 0 0 0 804.788 264.056 A 49.532 49.532 0 0 0 805.664 264.064 L 823.242 264.064 A 44.01 44.01 0 0 0 838.159 261.561 A 41.669 41.669 0 0 0 840.723 260.548 A 44.504 44.504 0 0 0 854.883 250.88 A 46.52 46.52 0 0 0 864.453 236.623 A 43.231 43.231 0 0 0 867.961 220.018 A 49.532 49.532 0 0 0 867.969 219.142 L 867.969 160.744 L 823.242 160.744 L 823.242 136.72 L 893.164 136.72 Z M 1110.938 283.986 L 953.32 283.986 L 953.32 3.908 L 1110.938 3.908 L 1110.938 27.931 L 978.516 27.931 L 978.516 132.033 L 1085.742 132.033 L 1085.742 156.056 L 978.516 156.056 L 978.516 259.963 L 1110.938 259.963 L 1110.938 283.986 Z M 525.977 27.931 L 459.18 27.931 L 459.18 283.986 L 433.984 283.986 L 433.984 27.931 L 367.188 27.931 L 367.188 3.908 L 525.977 3.908 L 525.977 27.931 Z M 341.211 283.986 L 322.656 218.752 L 233.984 218.752 L 215.625 283.986 L 189.453 283.986 L 271.484 3.908 L 284.766 3.908 L 367.188 283.986 L 341.211 283.986 Z M 677.734 283.986 L 659.18 218.752 L 570.508 218.752 L 552.148 283.986 L 525.977 283.986 L 608.008 3.908 L 621.289 3.908 L 703.711 283.986 L 677.734 283.986 Z M 88.672 283.986 L 0 283.986 L 0 3.908 L 88.672 3.908 A 67.753 67.753 0 0 1 115.527 9.279 A 69.013 69.013 0 0 1 137.5 24.025 A 69.013 69.013 0 0 1 152.246 45.998 Q 157.617 58.595 157.617 72.853 L 157.617 215.236 Q 157.617 229.494 152.246 241.994 Q 146.875 254.494 137.5 263.869 A 69.013 69.013 0 0 1 115.527 278.615 Q 102.93 283.986 88.672 283.986 Z M 132.422 215.236 L 132.422 72.853 A 44.01 44.01 0 0 0 129.919 57.937 A 41.669 41.669 0 0 0 128.906 55.373 A 45.667 45.667 0 0 0 119.238 41.115 A 45.667 45.667 0 0 0 104.98 31.447 A 43.231 43.231 0 0 0 88.376 27.939 A 49.532 49.532 0 0 0 87.5 27.931 L 25.195 27.931 L 25.195 259.963 L 87.5 259.963 A 44.01 44.01 0 0 0 102.417 257.46 A 41.669 41.669 0 0 0 104.98 256.447 A 46.52 46.52 0 0 0 119.238 246.877 A 44.504 44.504 0 0 0 128.906 232.716 A 43.231 43.231 0 0 0 132.414 216.112 A 49.532 49.532 0 0 0 132.422 215.236 Z M 277.539 65.627 L 240.82 194.728 L 316.016 194.728 L 279.102 65.627 L 278.32 55.275 L 277.539 65.627 Z M 614.063 65.627 L 577.344 194.728 L 652.539 194.728 L 615.625 65.627 L 614.844 55.275 L 614.063 65.627 Z" vector-effect="non-scaling-stroke"/></g></svg>